<?xml version="1.0" encoding="UTF-8" standalone="no"?>
<!DOCTYPE svg PUBLIC "-//W3C//DTD SVG 1.1//EN"
 "http://www.w3.org/Graphics/SVG/1.1/DTD/svg11.dtd">
<!-- Generated by graphviz version 2.38.0 (20140413.2041)
 -->
<!-- Title: FutureFactory.hxx Pages: 1 -->
<svg width="140pt" height="86pt"
 viewBox="0.00 0.00 140.03 86.00" xmlns="http://www.w3.org/2000/svg" xmlns:xlink="http://www.w3.org/1999/xlink">
<g id="graph0" class="graph" transform="scale(1 1) rotate(0) translate(4 82)">
<title>FutureFactory.hxx</title>
<polygon fill="white" stroke="none" points="-4,4 -4,-82 136.027,-82 136.027,4 -4,4"/>
<!-- Node1 -->
<g id="node1" class="node"><title>Node1</title>
<polygon fill="#bfbfbf" stroke="black" points="4.43652,-57.5 4.43652,-77.5 116.249,-77.5 116.249,-57.5 4.43652,-57.5"/>
<text text-anchor="middle" x="60.3428" y="-63.9" font-family="FreeSans" font-size="12.00">FutureFactory.hxx</text>
</g>
<!-- Node2 -->
<g id="node2" class="node"><title>Node2</title>
<polygon fill="white" stroke="#bfbfbf" points="0,-0.5 0,-20.5 46.6855,-20.5 46.6855,-0.5 0,-0.5"/>
<text text-anchor="middle" x="23.3428" y="-6.9" font-family="FreeSans" font-size="12.00">future</text>
</g>
<!-- Node1&#45;&gt;Node2 -->
<g id="edge1" class="edge"><title>Node1&#45;&gt;Node2</title>
<path fill="none" stroke="midnightblue" d="M54.233,-57.4179C49.0689,-49.7415 41.521,-38.5217 35.1791,-29.0945"/>
<polygon fill="midnightblue" stroke="midnightblue" points="38.0712,-27.1231 29.5853,-20.7795 32.2631,-31.0303 38.0712,-27.1231"/>
</g>
<!-- Node3 -->
<g id="node3" class="node"><title>Node3</title>
<polygon fill="white" stroke="#bfbfbf" points="64.6582,-0.5 64.6582,-20.5 132.027,-20.5 132.027,-0.5 64.6582,-0.5"/>
<text text-anchor="middle" x="98.3428" y="-6.9" font-family="FreeSans" font-size="12.00">functional</text>
</g>
<!-- Node1&#45;&gt;Node3 -->
<g id="edge2" class="edge"><title>Node1&#45;&gt;Node3</title>
<path fill="none" stroke="midnightblue" d="M66.6177,-57.4179C71.9213,-49.7415 79.6732,-38.5217 86.1866,-29.0945"/>
<polygon fill="midnightblue" stroke="midnightblue" points="89.1267,-30.9963 91.9315,-20.7795 83.3676,-27.0173 89.1267,-30.9963"/>
</g>
</g>
</svg>
