<?xml version="1.0" encoding="UTF-8" standalone="no"?>
<!DOCTYPE svg PUBLIC "-//W3C//DTD SVG 1.1//EN"
 "http://www.w3.org/Graphics/SVG/1.1/DTD/svg11.dtd">
<!-- Generated by graphviz version 2.38.0 (20140413.2041)
 -->
<!-- Title: FutureSynchronyzer.hxx Pages: 1 -->
<svg width="597pt" height="143pt"
 viewBox="0.00 0.00 597.25 143.00" xmlns="http://www.w3.org/2000/svg" xmlns:xlink="http://www.w3.org/1999/xlink">
<g id="graph0" class="graph" transform="scale(1 1) rotate(0) translate(4 139)">
<title>FutureSynchronyzer.hxx</title>
<polygon fill="white" stroke="none" points="-4,4 -4,-139 593.249,-139 593.249,4 -4,4"/>
<!-- Node1 -->
<g id="node1" class="node"><title>Node1</title>
<polygon fill="#bfbfbf" stroke="black" points="321.882,-114.5 321.882,-134.5 467.28,-134.5 467.28,-114.5 321.882,-114.5"/>
<text text-anchor="middle" x="394.581" y="-120.9" font-family="FreeSans" font-size="12.00">FutureSynchronyzer.hxx</text>
</g>
<!-- Node2 -->
<g id="node2" class="node"><title>Node2</title>
<g id="a_node2"><a xlink:href="_result_policy_8hxx.html" target="_top" xlink:title="../policy/ResultPolicy.hxx">
<polygon fill="white" stroke="black" points="0,-57.5 0,-77.5 147.162,-77.5 147.162,-57.5 0,-57.5"/>
<text text-anchor="middle" x="73.5811" y="-63.9" font-family="FreeSans" font-size="12.00">../policy/ResultPolicy.hxx</text>
</a>
</g>
</g>
<!-- Node1&#45;&gt;Node2 -->
<g id="edge1" class="edge"><title>Node1&#45;&gt;Node2</title>
<path fill="none" stroke="midnightblue" d="M341.934,-114.479C285.608,-104.829 196.297,-89.5262 136.354,-79.2554"/>
<polygon fill="midnightblue" stroke="midnightblue" points="136.704,-75.7646 126.257,-77.5255 135.522,-82.6641 136.704,-75.7646"/>
</g>
<!-- Node4 -->
<g id="node4" class="node"><title>Node4</title>
<g id="a_node4"><a xlink:href="_future_factory_8hxx.html" target="_top" xlink:title="../factory/FutureFactory.hxx">
<polygon fill="white" stroke="black" points="165.001,-57.5 165.001,-77.5 326.161,-77.5 326.161,-57.5 165.001,-57.5"/>
<text text-anchor="middle" x="245.581" y="-63.9" font-family="FreeSans" font-size="12.00">../factory/FutureFactory.hxx</text>
</a>
</g>
</g>
<!-- Node1&#45;&gt;Node4 -->
<g id="edge3" class="edge"><title>Node1&#45;&gt;Node4</title>
<path fill="none" stroke="midnightblue" d="M369.977,-114.418C345.389,-105.342 307.382,-91.3123 279.848,-81.1488"/>
<polygon fill="midnightblue" stroke="midnightblue" points="280.815,-77.7751 270.222,-77.5956 278.391,-84.342 280.815,-77.7751"/>
</g>
<!-- Node7 -->
<g id="node7" class="node"><title>Node7</title>
<g id="a_node7"><a xlink:href="_macro_8hpp.html" target="_top" xlink:title="../util/Macro.hpp">
<polygon fill="white" stroke="black" points="343.896,-57.5 343.896,-77.5 445.267,-77.5 445.267,-57.5 343.896,-57.5"/>
<text text-anchor="middle" x="394.581" y="-63.9" font-family="FreeSans" font-size="12.00">../util/Macro.hpp</text>
</a>
</g>
</g>
<!-- Node1&#45;&gt;Node7 -->
<g id="edge6" class="edge"><title>Node1&#45;&gt;Node7</title>
<path fill="none" stroke="midnightblue" d="M394.581,-114.418C394.581,-107.216 394.581,-96.8962 394.581,-87.8632"/>
<polygon fill="midnightblue" stroke="midnightblue" points="398.081,-87.7794 394.581,-77.7795 391.081,-87.7795 398.081,-87.7794"/>
</g>
<!-- Node8 -->
<g id="node8" class="node"><title>Node8</title>
<polygon fill="white" stroke="#bfbfbf" points="463.242,-57.5 463.242,-77.5 511.92,-77.5 511.92,-57.5 463.242,-57.5"/>
<text text-anchor="middle" x="487.581" y="-63.9" font-family="FreeSans" font-size="12.00">vector</text>
</g>
<!-- Node1&#45;&gt;Node8 -->
<g id="edge7" class="edge"><title>Node1&#45;&gt;Node8</title>
<path fill="none" stroke="midnightblue" d="M409.938,-114.418C424.477,-105.82 446.534,-92.7754 463.427,-82.7844"/>
<polygon fill="midnightblue" stroke="midnightblue" points="465.375,-85.6987 472.201,-77.5956 461.812,-79.6735 465.375,-85.6987"/>
</g>
<!-- Node9 -->
<g id="node9" class="node"><title>Node9</title>
<polygon fill="white" stroke="#bfbfbf" points="529.913,-57.5 529.913,-77.5 589.249,-77.5 589.249,-57.5 529.913,-57.5"/>
<text text-anchor="middle" x="559.581" y="-63.9" font-family="FreeSans" font-size="12.00">memory</text>
</g>
<!-- Node1&#45;&gt;Node9 -->
<g id="edge8" class="edge"><title>Node1&#45;&gt;Node9</title>
<path fill="none" stroke="midnightblue" d="M421.827,-114.418C449.377,-105.235 492.139,-90.9807 522.708,-80.7909"/>
<polygon fill="midnightblue" stroke="midnightblue" points="524.188,-83.9869 532.568,-77.5042 521.975,-77.3462 524.188,-83.9869"/>
</g>
<!-- Node3 -->
<g id="node3" class="node"><title>Node3</title>
<g id="a_node3"><a xlink:href="_policy_8hxx.html" target="_top" xlink:title="Policy.hxx">
<polygon fill="white" stroke="black" points="39.0146,-0.5 39.0146,-20.5 108.147,-20.5 108.147,-0.5 39.0146,-0.5"/>
<text text-anchor="middle" x="73.5811" y="-6.9" font-family="FreeSans" font-size="12.00">Policy.hxx</text>
</a>
</g>
</g>
<!-- Node2&#45;&gt;Node3 -->
<g id="edge2" class="edge"><title>Node2&#45;&gt;Node3</title>
<path fill="none" stroke="midnightblue" d="M73.5811,-57.4179C73.5811,-50.2164 73.5811,-39.8962 73.5811,-30.8632"/>
<polygon fill="midnightblue" stroke="midnightblue" points="77.0812,-30.7794 73.5811,-20.7795 70.0812,-30.7795 77.0812,-30.7794"/>
</g>
<!-- Node5 -->
<g id="node5" class="node"><title>Node5</title>
<polygon fill="white" stroke="#bfbfbf" points="184.238,-0.5 184.238,-20.5 230.924,-20.5 230.924,-0.5 184.238,-0.5"/>
<text text-anchor="middle" x="207.581" y="-6.9" font-family="FreeSans" font-size="12.00">future</text>
</g>
<!-- Node4&#45;&gt;Node5 -->
<g id="edge4" class="edge"><title>Node4&#45;&gt;Node5</title>
<path fill="none" stroke="midnightblue" d="M239.306,-57.4179C234.002,-49.7415 226.251,-38.5217 219.737,-29.0945"/>
<polygon fill="midnightblue" stroke="midnightblue" points="222.556,-27.0173 213.992,-20.7795 216.797,-30.9963 222.556,-27.0173"/>
</g>
<!-- Node6 -->
<g id="node6" class="node"><title>Node6</title>
<polygon fill="white" stroke="#bfbfbf" points="248.896,-0.5 248.896,-20.5 316.266,-20.5 316.266,-0.5 248.896,-0.5"/>
<text text-anchor="middle" x="282.581" y="-6.9" font-family="FreeSans" font-size="12.00">functional</text>
</g>
<!-- Node4&#45;&gt;Node6 -->
<g id="edge5" class="edge"><title>Node4&#45;&gt;Node6</title>
<path fill="none" stroke="midnightblue" d="M251.691,-57.4179C256.855,-49.7415 264.403,-38.5217 270.745,-29.0945"/>
<polygon fill="midnightblue" stroke="midnightblue" points="273.661,-31.0303 276.339,-20.7795 267.853,-27.1231 273.661,-31.0303"/>
</g>
</g>
</svg>
