<?xml version="1.0" encoding="UTF-8" standalone="no"?>
<!DOCTYPE svg PUBLIC "-//W3C//DTD SVG 1.1//EN"
 "http://www.w3.org/Graphics/SVG/1.1/DTD/svg11.dtd">
<!-- Generated by graphviz version 2.38.0 (20140413.2041)
 -->
<!-- Title: Policy.hxx Pages: 1 -->
<svg width="153pt" height="143pt"
 viewBox="0.00 0.00 153.40 143.00" xmlns="http://www.w3.org/2000/svg" xmlns:xlink="http://www.w3.org/1999/xlink">
<g id="graph0" class="graph" transform="scale(1 1) rotate(0) translate(4 139)">
<title>Policy.hxx</title>
<polygon fill="white" stroke="none" points="-4,4 -4,-139 149.398,-139 149.398,4 -4,4"/>
<!-- Node1 -->
<g id="node1" class="node"><title>Node1</title>
<polygon fill="#bfbfbf" stroke="black" points="38.1328,-114.5 38.1328,-134.5 107.266,-134.5 107.266,-114.5 38.1328,-114.5"/>
<text text-anchor="middle" x="72.6992" y="-120.9" font-family="FreeSans" font-size="12.00">Policy.hxx</text>
</g>
<!-- Node2 -->
<g id="node2" class="node"><title>Node2</title>
<g id="a_node2"><a xlink:href="_result_policy_8hxx.html" target="_top" xlink:title="ResultPolicy.hxx">
<polygon fill="white" stroke="black" points="21.126,-57.5 21.126,-77.5 124.272,-77.5 124.272,-57.5 21.126,-57.5"/>
<text text-anchor="middle" x="72.6992" y="-63.9" font-family="FreeSans" font-size="12.00">ResultPolicy.hxx</text>
</a>
</g>
</g>
<!-- Node1&#45;&gt;Node2 -->
<g id="edge1" class="edge"><title>Node1&#45;&gt;Node2</title>
<path fill="none" stroke="midnightblue" d="M72.6992,-104.383C72.6992,-95.3738 72.6992,-85.0373 72.6992,-77.7795"/>
<polygon fill="midnightblue" stroke="midnightblue" points="69.1993,-104.418 72.6992,-114.418 76.1993,-104.418 69.1993,-104.418"/>
</g>
<!-- Node3 -->
<g id="node3" class="node"><title>Node3</title>
<g id="a_node3"><a xlink:href="_future_synchronyzer_8hxx.html" target="_top" xlink:title="FutureSynchronyzer.hxx">
<polygon fill="white" stroke="black" points="0,-0.5 0,-20.5 145.398,-20.5 145.398,-0.5 0,-0.5"/>
<text text-anchor="middle" x="72.6992" y="-6.9" font-family="FreeSans" font-size="12.00">FutureSynchronyzer.hxx</text>
</a>
</g>
</g>
<!-- Node2&#45;&gt;Node3 -->
<g id="edge2" class="edge"><title>Node2&#45;&gt;Node3</title>
<path fill="none" stroke="midnightblue" d="M72.6992,-47.383C72.6992,-38.3738 72.6992,-28.0373 72.6992,-20.7795"/>
<polygon fill="midnightblue" stroke="midnightblue" points="69.1993,-47.4178 72.6992,-57.4179 76.1993,-47.4179 69.1993,-47.4178"/>
</g>
</g>
</svg>
