<?xml version="1.0" encoding="UTF-8" standalone="no"?>
<!DOCTYPE svg PUBLIC "-//W3C//DTD SVG 1.1//EN"
 "http://www.w3.org/Graphics/SVG/1.1/DTD/svg11.dtd">
<!-- Generated by graphviz version 2.38.0 (20140413.2041)
 -->
<!-- Title: thread::FutureSynchronyzer::launch Pages: 1 -->
<svg width="373pt" height="92pt"
 viewBox="0.00 0.00 373.48 92.00" xmlns="http://www.w3.org/2000/svg" xmlns:xlink="http://www.w3.org/1999/xlink">
<g id="graph0" class="graph" transform="scale(1 1) rotate(0) translate(4 88)">
<title>thread::FutureSynchronyzer::launch</title>
<polygon fill="white" stroke="none" points="-4,4 -4,-88 369.48,-88 369.48,4 -4,4"/>
<!-- Node1 -->
<g id="node1" class="node"><title>Node1</title>
<polygon fill="#bfbfbf" stroke="black" points="0,-25.5 0,-57.5 164.74,-57.5 164.74,-25.5 0,-25.5"/>
<text text-anchor="start" x="8" y="-43.9" font-family="FreeSans" font-size="12.00">thread::FutureSynchronyzer</text>
<text text-anchor="middle" x="82.3701" y="-31.9" font-family="FreeSans" font-size="12.00">::launch</text>
</g>
<!-- Node2 -->
<g id="node2" class="node"><title>Node2</title>
<g id="a_node2"><a xlink:href="classthread_1_1_future_synchronyzer.html#ad6338eaf056042a00d4af216cb7e77e2" target="_top" xlink:title="thread::FutureSynchronyzer\l::applyResult">
<polygon fill="white" stroke="black" points="200.74,-51.5 200.74,-83.5 365.48,-83.5 365.48,-51.5 200.74,-51.5"/>
<text text-anchor="start" x="208.74" y="-69.9" font-family="FreeSans" font-size="12.00">thread::FutureSynchronyzer</text>
<text text-anchor="middle" x="283.11" y="-57.9" font-family="FreeSans" font-size="12.00">::applyResult</text>
</a>
</g>
</g>
<!-- Node1&#45;&gt;Node2 -->
<g id="edge1" class="edge"><title>Node1&#45;&gt;Node2</title>
<path fill="none" stroke="midnightblue" d="M164.779,-52.1502C173.254,-53.259 181.91,-54.3913 190.488,-55.5136"/>
<polygon fill="midnightblue" stroke="midnightblue" points="190.137,-58.9974 200.507,-56.8243 191.045,-52.0566 190.137,-58.9974"/>
</g>
<!-- Node3 -->
<g id="node3" class="node"><title>Node3</title>
<g id="a_node3"><a xlink:href="classthread_1_1_future_synchronyzer.html#a45a5e9e358cebc104bc7816da1b84104" target="_top" xlink:title="thread::FutureSynchronyzer\l::getNextFunction">
<polygon fill="white" stroke="black" points="200.74,-0.5 200.74,-32.5 365.48,-32.5 365.48,-0.5 200.74,-0.5"/>
<text text-anchor="start" x="208.74" y="-18.9" font-family="FreeSans" font-size="12.00">thread::FutureSynchronyzer</text>
<text text-anchor="middle" x="283.11" y="-6.9" font-family="FreeSans" font-size="12.00">::getNextFunction</text>
</a>
</g>
</g>
<!-- Node1&#45;&gt;Node3 -->
<g id="edge2" class="edge"><title>Node1&#45;&gt;Node3</title>
<path fill="none" stroke="midnightblue" d="M164.779,-31.2594C173.254,-30.1933 181.91,-29.1045 190.488,-28.0254"/>
<polygon fill="midnightblue" stroke="midnightblue" points="191.022,-31.4859 200.507,-26.7651 190.148,-24.5407 191.022,-31.4859"/>
</g>
</g>
</svg>
