<?xml version="1.0" encoding="UTF-8" standalone="no"?>
<!DOCTYPE svg PUBLIC "-//W3C//DTD SVG 1.1//EN"
 "http://www.w3.org/Graphics/SVG/1.1/DTD/svg11.dtd">
<!-- Generated by graphviz version 2.38.0 (20140413.2041)
 -->
<!-- Title: thread::FutureSynchronyzer&lt; ResultPolicy, FutureFactory, OutputResult &gt; Pages: 1 -->
<svg width="198pt" height="346pt"
 viewBox="0.00 0.00 198.36 346.00" xmlns="http://www.w3.org/2000/svg" xmlns:xlink="http://www.w3.org/1999/xlink">
<g id="graph0" class="graph" transform="scale(1 1) rotate(0) translate(4 342)">
<title>thread::FutureSynchronyzer&lt; ResultPolicy, FutureFactory, OutputResult &gt;</title>
<polygon fill="white" stroke="none" points="-4,4 -4,-342 194.356,-342 194.356,4 -4,4"/>
<!-- Node1 -->
<g id="node1" class="node"><title>Node1</title>
<polygon fill="#bfbfbf" stroke="black" points="5.36816,-0.5 5.36816,-240.5 180.655,-240.5 180.655,-0.5 5.36816,-0.5"/>
<text text-anchor="start" x="13.3682" y="-226.9" font-family="FreeSans" font-size="12.00">thread::FutureSynchronyzer</text>
<text text-anchor="start" x="13.3682" y="-214.9" font-family="FreeSans" font-size="12.00">&lt; ResultPolicy, FutureFactory,</text>
<text text-anchor="middle" x="93.0117" y="-202.9" font-family="FreeSans" font-size="12.00"> OutputResult &gt;</text>
<polyline fill="none" stroke="black" points="5.36816,-196.5 180.655,-196.5 "/>
<text text-anchor="start" x="13.3682" y="-182.9" font-family="FreeSans" font-size="12.00">&#45; m_futures</text>
<text text-anchor="start" x="13.3682" y="-170.9" font-family="FreeSans" font-size="12.00">&#45; m_functions</text>
<text text-anchor="start" x="13.3682" y="-158.9" font-family="FreeSans" font-size="12.00">&#45; m_numThreads</text>
<text text-anchor="start" x="13.3682" y="-146.9" font-family="FreeSans" font-size="12.00">&#45; m_outputResult</text>
<polyline fill="none" stroke="black" points="5.36816,-140.5 180.655,-140.5 "/>
<text text-anchor="start" x="13.3682" y="-126.9" font-family="FreeSans" font-size="12.00">+ FutureSynchronyzer()</text>
<text text-anchor="start" x="13.3682" y="-114.9" font-family="FreeSans" font-size="12.00">+ ~FutureSynchronyzer()</text>
<text text-anchor="start" x="13.3682" y="-102.9" font-family="FreeSans" font-size="12.00">+ addFunction()</text>
<text text-anchor="start" x="13.3682" y="-90.9" font-family="FreeSans" font-size="12.00">+ launch()</text>
<text text-anchor="start" x="13.3682" y="-78.9" font-family="FreeSans" font-size="12.00">+ wait()</text>
<text text-anchor="start" x="13.3682" y="-66.9" font-family="FreeSans" font-size="12.00">+ launchAndWait()</text>
<text text-anchor="start" x="13.3682" y="-54.9" font-family="FreeSans" font-size="12.00">+ outputResult()</text>
<text text-anchor="start" x="13.3682" y="-42.9" font-family="FreeSans" font-size="12.00">+ numThreads()</text>
<text text-anchor="start" x="13.3682" y="-30.9" font-family="FreeSans" font-size="12.00">&#45; getNextFunction()</text>
<text text-anchor="start" x="13.3682" y="-18.9" font-family="FreeSans" font-size="12.00">&#45; applyResult()</text>
<text text-anchor="start" x="13.3682" y="-6.9" font-family="FreeSans" font-size="12.00">&#45; applyResult()</text>
</g>
<!-- Node2 -->
<g id="node2" class="node"><title>Node2</title>
<g id="a_node2"><a xlink:href="class_result_policy.html" target="_top" xlink:title="{ResultPolicy\n||}">
<polygon fill="white" stroke="black" points="0,-277.5 0,-337.5 82.0234,-337.5 82.0234,-277.5 0,-277.5"/>
<text text-anchor="middle" x="41.0117" y="-323.9" font-family="FreeSans" font-size="12.00">ResultPolicy</text>
<polyline fill="none" stroke="black" points="0,-317.5 82.0234,-317.5 "/>
<text text-anchor="middle" x="41.0117" y="-303.9" font-family="FreeSans" font-size="12.00"> </text>
<polyline fill="none" stroke="black" points="0,-297.5 82.0234,-297.5 "/>
<text text-anchor="middle" x="41.0117" y="-283.9" font-family="FreeSans" font-size="12.00"> </text>
</a>
</g>
</g>
<!-- Node2&#45;&gt;Node1 -->
<g id="edge1" class="edge"><title>Node2&#45;&gt;Node1</title>
<path fill="none" stroke="midnightblue" d="M52.0235,-267.323C54.3195,-259.155 56.8522,-250.144 59.4985,-240.73"/>
<polygon fill="none" stroke="midnightblue" points="48.5879,-266.612 49.2513,-277.186 55.3267,-268.506 48.5879,-266.612"/>
</g>
<!-- Node3 -->
<g id="node3" class="node"><title>Node3</title>
<g id="a_node3"><a xlink:href="class_future_factory.html" target="_top" xlink:title="{FutureFactory\n||}">
<polygon fill="white" stroke="black" points="99.667,-277.5 99.667,-337.5 190.356,-337.5 190.356,-277.5 99.667,-277.5"/>
<text text-anchor="middle" x="145.012" y="-323.9" font-family="FreeSans" font-size="12.00">FutureFactory</text>
<polyline fill="none" stroke="black" points="99.667,-317.5 190.356,-317.5 "/>
<text text-anchor="middle" x="145.012" y="-303.9" font-family="FreeSans" font-size="12.00"> </text>
<polyline fill="none" stroke="black" points="99.667,-297.5 190.356,-297.5 "/>
<text text-anchor="middle" x="145.012" y="-283.9" font-family="FreeSans" font-size="12.00"> </text>
</a>
</g>
</g>
<!-- Node3&#45;&gt;Node1 -->
<g id="edge2" class="edge"><title>Node3&#45;&gt;Node1</title>
<path fill="none" stroke="midnightblue" d="M134,-267.323C131.704,-259.155 129.171,-250.144 126.525,-240.73"/>
<polygon fill="none" stroke="midnightblue" points="130.697,-268.506 136.772,-277.186 137.436,-266.612 130.697,-268.506"/>
</g>
</g>
</svg>
