<?xml version="1.0" encoding="UTF-8" standalone="no"?>
<!DOCTYPE svg PUBLIC "-//W3C//DTD SVG 1.1//EN"
 "http://www.w3.org/Graphics/SVG/1.1/DTD/svg11.dtd">
<!-- Generated by graphviz version 2.38.0 (20140413.2041)
 -->
<!-- Title: FutureFactory Pages: 1 -->
<svg width="183pt" height="346pt"
 viewBox="0.00 0.00 183.29 346.00" xmlns="http://www.w3.org/2000/svg" xmlns:xlink="http://www.w3.org/1999/xlink">
<g id="graph0" class="graph" transform="scale(1 1) rotate(0) translate(4 342)">
<title>FutureFactory</title>
<polygon fill="white" stroke="none" points="-4,4 -4,-342 179.287,-342 179.287,4 -4,4"/>
<!-- Node1 -->
<g id="node1" class="node"><title>Node1</title>
<polygon fill="#bfbfbf" stroke="black" points="42.2988,-277.5 42.2988,-337.5 132.988,-337.5 132.988,-277.5 42.2988,-277.5"/>
<text text-anchor="middle" x="87.6436" y="-323.9" font-family="FreeSans" font-size="12.00">FutureFactory</text>
<polyline fill="none" stroke="black" points="42.2988,-317.5 132.988,-317.5 "/>
<text text-anchor="middle" x="87.6436" y="-303.9" font-family="FreeSans" font-size="12.00"> </text>
<polyline fill="none" stroke="black" points="42.2988,-297.5 132.988,-297.5 "/>
<text text-anchor="middle" x="87.6436" y="-283.9" font-family="FreeSans" font-size="12.00"> </text>
</g>
<!-- Node2 -->
<g id="node2" class="node"><title>Node2</title>
<g id="a_node2"><a xlink:href="classthread_1_1_future_synchronyzer.html" target="_top" xlink:title="{thread::FutureSynchronyzer\l\&lt; ResultPolicy, FutureFactory,\l OutputResult \&gt;\n|&#45; m_futures\l&#45; m_functions\l&#45; m_numThreads\l&#45; m_outputResult\l|+ FutureSynchronyzer()\l+ ~FutureSynchronyzer()\l+ addFunction()\l+ launch()\l+ wait()\l+ launchAndWait()\l+ outputResult()\l+ numThreads()\l&#45; getNextFunction()\l&#45; applyResult()\l&#45; applyResult()\l}">
<polygon fill="white" stroke="black" points="0,-0.5 0,-240.5 175.287,-240.5 175.287,-0.5 0,-0.5"/>
<text text-anchor="start" x="8" y="-226.9" font-family="FreeSans" font-size="12.00">thread::FutureSynchronyzer</text>
<text text-anchor="start" x="8" y="-214.9" font-family="FreeSans" font-size="12.00">&lt; ResultPolicy, FutureFactory,</text>
<text text-anchor="middle" x="87.6436" y="-202.9" font-family="FreeSans" font-size="12.00"> OutputResult &gt;</text>
<polyline fill="none" stroke="black" points="0,-196.5 175.287,-196.5 "/>
<text text-anchor="start" x="8" y="-182.9" font-family="FreeSans" font-size="12.00">&#45; m_futures</text>
<text text-anchor="start" x="8" y="-170.9" font-family="FreeSans" font-size="12.00">&#45; m_functions</text>
<text text-anchor="start" x="8" y="-158.9" font-family="FreeSans" font-size="12.00">&#45; m_numThreads</text>
<text text-anchor="start" x="8" y="-146.9" font-family="FreeSans" font-size="12.00">&#45; m_outputResult</text>
<polyline fill="none" stroke="black" points="0,-140.5 175.287,-140.5 "/>
<text text-anchor="start" x="8" y="-126.9" font-family="FreeSans" font-size="12.00">+ FutureSynchronyzer()</text>
<text text-anchor="start" x="8" y="-114.9" font-family="FreeSans" font-size="12.00">+ ~FutureSynchronyzer()</text>
<text text-anchor="start" x="8" y="-102.9" font-family="FreeSans" font-size="12.00">+ addFunction()</text>
<text text-anchor="start" x="8" y="-90.9" font-family="FreeSans" font-size="12.00">+ launch()</text>
<text text-anchor="start" x="8" y="-78.9" font-family="FreeSans" font-size="12.00">+ wait()</text>
<text text-anchor="start" x="8" y="-66.9" font-family="FreeSans" font-size="12.00">+ launchAndWait()</text>
<text text-anchor="start" x="8" y="-54.9" font-family="FreeSans" font-size="12.00">+ outputResult()</text>
<text text-anchor="start" x="8" y="-42.9" font-family="FreeSans" font-size="12.00">+ numThreads()</text>
<text text-anchor="start" x="8" y="-30.9" font-family="FreeSans" font-size="12.00">&#45; getNextFunction()</text>
<text text-anchor="start" x="8" y="-18.9" font-family="FreeSans" font-size="12.00">&#45; applyResult()</text>
<text text-anchor="start" x="8" y="-6.9" font-family="FreeSans" font-size="12.00">&#45; applyResult()</text>
</a>
</g>
</g>
<!-- Node1&#45;&gt;Node2 -->
<g id="edge1" class="edge"><title>Node1&#45;&gt;Node2</title>
<path fill="none" stroke="midnightblue" d="M87.6436,-267.051C87.6436,-258.955 87.6436,-250.04 87.6436,-240.73"/>
<polygon fill="none" stroke="midnightblue" points="84.1437,-267.186 87.6436,-277.186 91.1437,-267.186 84.1437,-267.186"/>
</g>
</g>
</svg>
