<?xml version="1.0" encoding="UTF-8" standalone="no"?>
<!DOCTYPE svg PUBLIC "-//W3C//DTD SVG 1.1//EN"
 "http://www.w3.org/Graphics/SVG/1.1/DTD/svg11.dtd">
<!-- Generated by graphviz version 2.38.0 (20140413.2041)
 -->
<!-- Title: thread::FutureSynchronyzer::launch Pages: 1 -->
<svg width="373pt" height="41pt"
 viewBox="0.00 0.00 373.48 41.00" xmlns="http://www.w3.org/2000/svg" xmlns:xlink="http://www.w3.org/1999/xlink">
<g id="graph0" class="graph" transform="scale(1 1) rotate(0) translate(4 37)">
<title>thread::FutureSynchronyzer::launch</title>
<polygon fill="white" stroke="none" points="-4,4 -4,-37 369.48,-37 369.48,4 -4,4"/>
<!-- Node1 -->
<g id="node1" class="node"><title>Node1</title>
<polygon fill="#bfbfbf" stroke="black" points="0,-0.5 0,-32.5 164.74,-32.5 164.74,-0.5 0,-0.5"/>
<text text-anchor="start" x="8" y="-18.9" font-family="FreeSans" font-size="12.00">thread::FutureSynchronyzer</text>
<text text-anchor="middle" x="82.3701" y="-6.9" font-family="FreeSans" font-size="12.00">::launch</text>
</g>
<!-- Node2 -->
<g id="node2" class="node"><title>Node2</title>
<g id="a_node2"><a xlink:href="classthread_1_1_future_synchronyzer.html#a5e5528be4da8754e76d7b89914cdb4c1" target="_top" xlink:title="thread::FutureSynchronyzer\l::launchAndWait">
<polygon fill="white" stroke="black" points="200.74,-0.5 200.74,-32.5 365.48,-32.5 365.48,-0.5 200.74,-0.5"/>
<text text-anchor="start" x="208.74" y="-18.9" font-family="FreeSans" font-size="12.00">thread::FutureSynchronyzer</text>
<text text-anchor="middle" x="283.11" y="-6.9" font-family="FreeSans" font-size="12.00">::launchAndWait</text>
</a>
</g>
</g>
<!-- Node1&#45;&gt;Node2 -->
<g id="edge1" class="edge"><title>Node1&#45;&gt;Node2</title>
<path fill="none" stroke="midnightblue" d="M174.795,-16.5C183.372,-16.5 192.029,-16.5 200.507,-16.5"/>
<polygon fill="midnightblue" stroke="midnightblue" points="174.779,-13.0001 164.779,-16.5 174.779,-20.0001 174.779,-13.0001"/>
</g>
</g>
</svg>
