<?xml version="1.0" encoding="UTF-8" standalone="no"?>
<!DOCTYPE svg PUBLIC "-//W3C//DTD SVG 1.1//EN"
 "http://www.w3.org/Graphics/SVG/1.1/DTD/svg11.dtd">
<!-- Generated by graphviz version 2.38.0 (20140413.2041)
 -->
<!-- Title: thread::FutureSynchronyzer::applyResult Pages: 1 -->
<svg width="574pt" height="92pt"
 viewBox="0.00 0.00 574.22 92.00" xmlns="http://www.w3.org/2000/svg" xmlns:xlink="http://www.w3.org/1999/xlink">
<g id="graph0" class="graph" transform="scale(1 1) rotate(0) translate(4 88)">
<title>thread::FutureSynchronyzer::applyResult</title>
<polygon fill="white" stroke="none" points="-4,4 -4,-88 570.221,-88 570.221,4 -4,4"/>
<!-- Node1 -->
<g id="node1" class="node"><title>Node1</title>
<polygon fill="#bfbfbf" stroke="black" points="0,-25.5 0,-57.5 164.74,-57.5 164.74,-25.5 0,-25.5"/>
<text text-anchor="start" x="8" y="-43.9" font-family="FreeSans" font-size="12.00">thread::FutureSynchronyzer</text>
<text text-anchor="middle" x="82.3701" y="-31.9" font-family="FreeSans" font-size="12.00">::applyResult</text>
</g>
<!-- Node2 -->
<g id="node2" class="node"><title>Node2</title>
<g id="a_node2"><a xlink:href="classthread_1_1_future_synchronyzer.html#a14dae5fac679e721ba919d53313c0429" target="_top" xlink:title="thread::FutureSynchronyzer\l::launch">
<polygon fill="white" stroke="black" points="200.74,-51.5 200.74,-83.5 365.48,-83.5 365.48,-51.5 200.74,-51.5"/>
<text text-anchor="start" x="208.74" y="-69.9" font-family="FreeSans" font-size="12.00">thread::FutureSynchronyzer</text>
<text text-anchor="middle" x="283.11" y="-57.9" font-family="FreeSans" font-size="12.00">::launch</text>
</a>
</g>
</g>
<!-- Node1&#45;&gt;Node2 -->
<g id="edge1" class="edge"><title>Node1&#45;&gt;Node2</title>
<path fill="none" stroke="midnightblue" d="M174.795,-53.4606C183.372,-54.5827 192.029,-55.7151 200.507,-56.8243"/>
<polygon fill="midnightblue" stroke="midnightblue" points="175.148,-49.9771 164.779,-52.1502 174.24,-56.9179 175.148,-49.9771"/>
</g>
<!-- Node4 -->
<g id="node4" class="node"><title>Node4</title>
<g id="a_node4"><a xlink:href="classthread_1_1_future_synchronyzer.html#a4bccddb2d806c69cbd23b2a50a1ad678" target="_top" xlink:title="thread::FutureSynchronyzer\l::wait">
<polygon fill="white" stroke="black" points="200.74,-0.5 200.74,-32.5 365.48,-32.5 365.48,-0.5 200.74,-0.5"/>
<text text-anchor="start" x="208.74" y="-18.9" font-family="FreeSans" font-size="12.00">thread::FutureSynchronyzer</text>
<text text-anchor="middle" x="283.11" y="-6.9" font-family="FreeSans" font-size="12.00">::wait</text>
</a>
</g>
</g>
<!-- Node1&#45;&gt;Node4 -->
<g id="edge3" class="edge"><title>Node1&#45;&gt;Node4</title>
<path fill="none" stroke="midnightblue" d="M174.795,-29.9994C183.372,-28.9205 192.029,-27.8316 200.507,-26.7651"/>
<polygon fill="midnightblue" stroke="midnightblue" points="174.264,-26.5386 164.779,-31.2594 175.137,-33.4839 174.264,-26.5386"/>
</g>
<!-- Node3 -->
<g id="node3" class="node"><title>Node3</title>
<g id="a_node3"><a xlink:href="classthread_1_1_future_synchronyzer.html#a5e5528be4da8754e76d7b89914cdb4c1" target="_top" xlink:title="thread::FutureSynchronyzer\l::launchAndWait">
<polygon fill="white" stroke="black" points="401.48,-25.5 401.48,-57.5 566.221,-57.5 566.221,-25.5 401.48,-25.5"/>
<text text-anchor="start" x="409.48" y="-43.9" font-family="FreeSans" font-size="12.00">thread::FutureSynchronyzer</text>
<text text-anchor="middle" x="483.851" y="-31.9" font-family="FreeSans" font-size="12.00">::launchAndWait</text>
</a>
</g>
</g>
<!-- Node2&#45;&gt;Node3 -->
<g id="edge2" class="edge"><title>Node2&#45;&gt;Node3</title>
<path fill="none" stroke="midnightblue" d="M375.536,-55.5394C384.113,-54.4173 392.769,-53.2849 401.247,-52.1757"/>
<polygon fill="midnightblue" stroke="midnightblue" points="374.981,-52.0821 365.519,-56.8498 375.889,-59.0229 374.981,-52.0821"/>
</g>
<!-- Node4&#45;&gt;Node3 -->
<g id="edge4" class="edge"><title>Node4&#45;&gt;Node3</title>
<path fill="none" stroke="midnightblue" d="M375.536,-28.0006C384.113,-29.0795 392.769,-30.1684 401.247,-31.2349"/>
<polygon fill="midnightblue" stroke="midnightblue" points="375.878,-24.5161 365.519,-26.7406 375.004,-31.4614 375.878,-24.5161"/>
</g>
</g>
</svg>
