<?xml version="1.0" encoding="UTF-8" standalone="no"?>
<!DOCTYPE svg PUBLIC "-//W3C//DTD SVG 1.1//EN"
 "http://www.w3.org/Graphics/SVG/1.1/DTD/svg11.dtd">
<!-- Generated by graphviz version 2.38.0 (20140413.2041)
 -->
<!-- Title: thread::FutureSynchronyzer&lt; ResultPolicy, FutureFactory, OutputResult &gt; Pages: 1 -->
<svg width="664pt" height="334pt"
 viewBox="0.00 0.00 663.87 334.00" xmlns="http://www.w3.org/2000/svg" xmlns:xlink="http://www.w3.org/1999/xlink">
<g id="graph0" class="graph" transform="scale(1 1) rotate(0) translate(4 330)">
<title>thread::FutureSynchronyzer&lt; ResultPolicy, FutureFactory, OutputResult &gt;</title>
<polygon fill="white" stroke="none" points="-4,4 -4,-330 659.874,-330 659.874,4 -4,4"/>
<!-- Node1 -->
<g id="node1" class="node"><title>Node1</title>
<polygon fill="#bfbfbf" stroke="black" points="228.368,-0.5 228.368,-204.5 403.655,-204.5 403.655,-0.5 228.368,-0.5"/>
<text text-anchor="start" x="236.368" y="-190.9" font-family="FreeSans" font-size="12.00">thread::FutureSynchronyzer</text>
<text text-anchor="start" x="236.368" y="-178.9" font-family="FreeSans" font-size="12.00">&lt; ResultPolicy, FutureFactory,</text>
<text text-anchor="middle" x="316.012" y="-166.9" font-family="FreeSans" font-size="12.00"> OutputResult &gt;</text>
<polyline fill="none" stroke="black" points="228.368,-160.5 403.655,-160.5 "/>
<text text-anchor="middle" x="316.012" y="-146.9" font-family="FreeSans" font-size="12.00"> </text>
<polyline fill="none" stroke="black" points="228.368,-140.5 403.655,-140.5 "/>
<text text-anchor="start" x="236.368" y="-126.9" font-family="FreeSans" font-size="12.00">+ FutureSynchronyzer()</text>
<text text-anchor="start" x="236.368" y="-114.9" font-family="FreeSans" font-size="12.00">+ ~FutureSynchronyzer()</text>
<text text-anchor="start" x="236.368" y="-102.9" font-family="FreeSans" font-size="12.00">+ addFunction()</text>
<text text-anchor="start" x="236.368" y="-90.9" font-family="FreeSans" font-size="12.00">+ launch()</text>
<text text-anchor="start" x="236.368" y="-78.9" font-family="FreeSans" font-size="12.00">+ wait()</text>
<text text-anchor="start" x="236.368" y="-66.9" font-family="FreeSans" font-size="12.00">+ launchAndWait()</text>
<text text-anchor="start" x="236.368" y="-54.9" font-family="FreeSans" font-size="12.00">+ outputResult()</text>
<text text-anchor="start" x="236.368" y="-42.9" font-family="FreeSans" font-size="12.00">+ numThreads()</text>
<text text-anchor="start" x="236.368" y="-30.9" font-family="FreeSans" font-size="12.00">&#45; getNextFunction()</text>
<text text-anchor="start" x="236.368" y="-18.9" font-family="FreeSans" font-size="12.00">&#45; applyResult()</text>
<text text-anchor="start" x="236.368" y="-6.9" font-family="FreeSans" font-size="12.00">&#45; applyResult()</text>
</g>
<!-- Node2 -->
<g id="node2" class="node"><title>Node2</title>
<g id="a_node2"><a xlink:href="class_result_policy.html" target="_top" xlink:title="{ResultPolicy\n||}">
<polygon fill="white" stroke="black" points="0,-259.5 0,-319.5 82.0234,-319.5 82.0234,-259.5 0,-259.5"/>
<text text-anchor="middle" x="41.0117" y="-305.9" font-family="FreeSans" font-size="12.00">ResultPolicy</text>
<polyline fill="none" stroke="black" points="0,-299.5 82.0234,-299.5 "/>
<text text-anchor="middle" x="41.0117" y="-285.9" font-family="FreeSans" font-size="12.00"> </text>
<polyline fill="none" stroke="black" points="0,-279.5 82.0234,-279.5 "/>
<text text-anchor="middle" x="41.0117" y="-265.9" font-family="FreeSans" font-size="12.00"> </text>
</a>
</g>
</g>
<!-- Node2&#45;&gt;Node1 -->
<g id="edge1" class="edge"><title>Node2&#45;&gt;Node1</title>
<path fill="none" stroke="midnightblue" d="M90.1703,-253.579C90.4515,-253.385 90.732,-253.192 91.0117,-253 135.95,-222.129 186.472,-188.467 228.24,-160.914"/>
<polygon fill="none" stroke="midnightblue" points="88.0915,-250.761 81.8693,-259.336 92.081,-256.513 88.0915,-250.761"/>
</g>
<!-- Node3 -->
<g id="node3" class="node"><title>Node3</title>
<g id="a_node3"><a xlink:href="class_future_factory.html" target="_top" xlink:title="{FutureFactory\n||}">
<polygon fill="white" stroke="black" points="99.667,-259.5 99.667,-319.5 190.356,-319.5 190.356,-259.5 99.667,-259.5"/>
<text text-anchor="middle" x="145.012" y="-305.9" font-family="FreeSans" font-size="12.00">FutureFactory</text>
<polyline fill="none" stroke="black" points="99.667,-299.5 190.356,-299.5 "/>
<text text-anchor="middle" x="145.012" y="-285.9" font-family="FreeSans" font-size="12.00"> </text>
<polyline fill="none" stroke="black" points="99.667,-279.5 190.356,-279.5 "/>
<text text-anchor="middle" x="145.012" y="-265.9" font-family="FreeSans" font-size="12.00"> </text>
</a>
</g>
</g>
<!-- Node3&#45;&gt;Node1 -->
<g id="edge2" class="edge"><title>Node3&#45;&gt;Node1</title>
<path fill="none" stroke="midnightblue" d="M178.899,-251.839C193.269,-236.292 210.747,-217.383 228.348,-198.341"/>
<polygon fill="none" stroke="midnightblue" points="176.325,-249.467 172.107,-259.186 181.465,-254.218 176.325,-249.467"/>
</g>
<!-- Node4 -->
<g id="node4" class="node"><title>Node4</title>
<polygon fill="white" stroke="#bfbfbf" points="208.48,-253.5 208.48,-325.5 325.543,-325.5 325.543,-253.5 208.48,-253.5"/>
<text text-anchor="start" x="216.48" y="-311.9" font-family="FreeSans" font-size="12.00">vector&lt; std::future</text>
<text text-anchor="middle" x="267.012" y="-299.9" font-family="FreeSans" font-size="12.00">&lt; OutputResult &gt; &gt;</text>
<polyline fill="none" stroke="#bfbfbf" points="208.48,-293.5 325.543,-293.5 "/>
<text text-anchor="middle" x="267.012" y="-279.9" font-family="FreeSans" font-size="12.00"> </text>
<polyline fill="none" stroke="#bfbfbf" points="208.48,-273.5 325.543,-273.5 "/>
<text text-anchor="middle" x="267.012" y="-259.9" font-family="FreeSans" font-size="12.00"> </text>
</g>
<!-- Node4&#45;&gt;Node1 -->
<g id="edge3" class="edge"><title>Node4&#45;&gt;Node1</title>
<path fill="none" stroke="#404040" d="M275.585,-253.45C278.039,-243.589 280.749,-232.864 283.326,-223 283.917,-220.737 284.517,-218.45 285.124,-216.147"/>
<polygon fill="none" stroke="#404040" points="285.134,-216.111 282.805,-209.286 288.209,-204.512 290.538,-211.336 285.134,-216.111"/>
<text text-anchor="middle" x="314.354" y="-225.4" font-family="FreeSans" font-size="12.00"> &#45;m_futures</text>
</g>
<!-- Node5 -->
<g id="node5" class="node"><title>Node5</title>
<polygon fill="white" stroke="#bfbfbf" points="343.991,-259.5 343.991,-319.5 438.032,-319.5 438.032,-259.5 343.991,-259.5"/>
<text text-anchor="middle" x="391.012" y="-305.9" font-family="FreeSans" font-size="12.00">OutputResult *</text>
<polyline fill="none" stroke="#bfbfbf" points="343.991,-299.5 438.032,-299.5 "/>
<text text-anchor="middle" x="391.012" y="-285.9" font-family="FreeSans" font-size="12.00"> </text>
<polyline fill="none" stroke="#bfbfbf" points="343.991,-279.5 438.032,-279.5 "/>
<text text-anchor="middle" x="391.012" y="-265.9" font-family="FreeSans" font-size="12.00"> </text>
</g>
<!-- Node5&#45;&gt;Node1 -->
<g id="edge4" class="edge"><title>Node5&#45;&gt;Node1</title>
<path fill="none" stroke="#404040" d="M377.408,-259.485C373.809,-251.585 369.993,-242.999 366.635,-235 364.06,-228.868 361.461,-222.555 358.873,-216.169"/>
<polygon fill="none" stroke="#404040" points="358.705,-215.753 352.757,-211.677 354.231,-204.618 360.18,-208.694 358.705,-215.753"/>
<text text-anchor="middle" x="412.7" y="-225.4" font-family="FreeSans" font-size="12.00"> &#45;m_outputResult</text>
</g>
<!-- Node6 -->
<g id="node6" class="node"><title>Node6</title>
<polygon fill="white" stroke="#bfbfbf" points="456.338,-259.5 456.338,-319.5 503.686,-319.5 503.686,-259.5 456.338,-259.5"/>
<text text-anchor="middle" x="480.012" y="-305.9" font-family="FreeSans" font-size="12.00">size_t</text>
<polyline fill="none" stroke="#bfbfbf" points="456.338,-299.5 503.686,-299.5 "/>
<text text-anchor="middle" x="480.012" y="-285.9" font-family="FreeSans" font-size="12.00"> </text>
<polyline fill="none" stroke="#bfbfbf" points="456.338,-279.5 503.686,-279.5 "/>
<text text-anchor="middle" x="480.012" y="-265.9" font-family="FreeSans" font-size="12.00"> </text>
</g>
<!-- Node6&#45;&gt;Node1 -->
<g id="edge5" class="edge"><title>Node6&#45;&gt;Node1</title>
<path fill="none" stroke="#404040" d="M473.858,-259.204C470.45,-247.288 465.369,-233.809 458.012,-223 445.621,-204.796 429.725,-187.795 413.079,-172.652"/>
<polygon fill="none" stroke="#404040" points="412.768,-172.376 405.622,-171.404 403.772,-164.434 410.917,-165.407 412.768,-172.376"/>
<text text-anchor="middle" x="510.694" y="-225.4" font-family="FreeSans" font-size="12.00"> &#45;m_numThreads</text>
</g>
<!-- Node7 -->
<g id="node7" class="node"><title>Node7</title>
<polygon fill="white" stroke="#bfbfbf" points="532.149,-253.5 532.149,-325.5 655.874,-325.5 655.874,-253.5 532.149,-253.5"/>
<text text-anchor="start" x="540.149" y="-311.9" font-family="FreeSans" font-size="12.00">vector&lt; std::function</text>
<text text-anchor="middle" x="594.012" y="-299.9" font-family="FreeSans" font-size="12.00">&lt; OutputResult()&gt; &gt;</text>
<polyline fill="none" stroke="#bfbfbf" points="532.149,-293.5 655.874,-293.5 "/>
<text text-anchor="middle" x="594.012" y="-279.9" font-family="FreeSans" font-size="12.00"> </text>
<polyline fill="none" stroke="#bfbfbf" points="532.149,-273.5 655.874,-273.5 "/>
<text text-anchor="middle" x="594.012" y="-259.9" font-family="FreeSans" font-size="12.00"> </text>
</g>
<!-- Node7&#45;&gt;Node1 -->
<g id="edge6" class="edge"><title>Node7&#45;&gt;Node1</title>
<path fill="none" stroke="#404040" d="M580.914,-253.458C575.645,-242.718 568.718,-231.505 560.012,-223 519.56,-183.483 463.483,-154.771 415.287,-135.409"/>
<polygon fill="none" stroke="#404040" points="415.033,-135.31 407.987,-136.845 403.86,-130.932 410.906,-129.397 415.033,-135.31"/>
<text text-anchor="middle" x="606.026" y="-225.4" font-family="FreeSans" font-size="12.00"> &#45;m_functions</text>
</g>
</g>
</svg>
