<?xml version="1.0" encoding="UTF-8" standalone="no"?>
<!DOCTYPE svg PUBLIC "-//W3C//DTD SVG 1.1//EN"
 "http://www.w3.org/Graphics/SVG/1.1/DTD/svg11.dtd">
<!-- Generated by graphviz version 2.38.0 (20140413.2041)
 -->
<!-- Title: Graph Legend Pages: 1 -->
<svg width="572pt" height="164pt"
 viewBox="0.00 0.00 572.02 164.00" xmlns="http://www.w3.org/2000/svg" xmlns:xlink="http://www.w3.org/1999/xlink">
<g id="graph0" class="graph" transform="scale(1 1) rotate(0) translate(4 160)">
<title>Graph Legend</title>
<polygon fill="white" stroke="none" points="-4,4 -4,-160 568.024,-160 568.024,4 -4,4"/>
<!-- Node9 -->
<g id="node1" class="node"><title>Node9</title>
<polygon fill="#bfbfbf" stroke="black" points="331.218,-20 268.818,-20 268.818,-0 331.218,-0 331.218,-20"/>
<text text-anchor="middle" x="300.018" y="-6.4" font-family="FreeSans" font-size="12.00">Inherited</text>
</g>
<!-- Node10 -->
<g id="node2" class="node"><title>Node10</title>
<g id="a_node2"><a xlink:href="$classPublicBase.html" xlink:title="PublicBase">
<polygon fill="none" stroke="black" points="76.0527,-88 -0.0175863,-88 -0.0175863,-68 76.0527,-68 76.0527,-88"/>
<text text-anchor="middle" x="38.0176" y="-74.4" font-family="FreeSans" font-size="12.00">PublicBase</text>
</a>
</g>
</g>
<!-- Node10&#45;&gt;Node9 -->
<g id="edge1" class="edge"><title>Node10&#45;&gt;Node9</title>
<path fill="none" stroke="midnightblue" d="M83.716,-65.4882C136.719,-52.1362 222.685,-30.4807 268.658,-18.8997"/>
<polygon fill="midnightblue" stroke="midnightblue" points="82.7403,-62.1246 73.8982,-67.9614 84.4503,-68.9125 82.7403,-62.1246"/>
</g>
<!-- Node11 -->
<g id="node3" class="node"><title>Node11</title>
<g id="a_node3"><a xlink:href="$classTruncated.html" xlink:title="Truncated">
<polygon fill="none" stroke="red" points="72.6086,-156 3.42653,-156 3.42653,-136 72.6086,-136 72.6086,-156"/>
<text text-anchor="middle" x="38.0176" y="-142.4" font-family="FreeSans" font-size="12.00">Truncated</text>
</a>
</g>
</g>
<!-- Node11&#45;&gt;Node10 -->
<g id="edge2" class="edge"><title>Node11&#45;&gt;Node10</title>
<path fill="none" stroke="midnightblue" d="M38.0176,-125.576C38.0176,-113.193 38.0176,-97.7217 38.0176,-88.0991"/>
<polygon fill="midnightblue" stroke="midnightblue" points="34.5177,-125.823 38.0176,-135.823 41.5177,-125.823 34.5177,-125.823"/>
</g>
<!-- Node13 -->
<g id="node4" class="node"><title>Node13</title>
<g id="a_node4"><a xlink:href="$classProtectedBase.html" xlink:title="ProtectedBase">
<polygon fill="none" stroke="black" points="188.233,-88 93.8023,-88 93.8023,-68 188.233,-68 188.233,-88"/>
<text text-anchor="middle" x="141.018" y="-74.4" font-family="FreeSans" font-size="12.00">ProtectedBase</text>
</a>
</g>
</g>
<!-- Node13&#45;&gt;Node9 -->
<g id="edge3" class="edge"><title>Node13&#45;&gt;Node9</title>
<path fill="none" stroke="darkgreen" d="M172.34,-63.9983C203.614,-51.0166 250.857,-31.4062 278.251,-20.0351"/>
<polygon fill="darkgreen" stroke="darkgreen" points="170.687,-60.895 162.792,-67.9614 173.37,-67.3601 170.687,-60.895"/>
</g>
<!-- Node14 -->
<g id="node5" class="node"><title>Node14</title>
<g id="a_node5"><a xlink:href="$classPrivateBase.html" xlink:title="PrivateBase">
<polygon fill="none" stroke="black" points="287.217,-88 206.818,-88 206.818,-68 287.217,-68 287.217,-88"/>
<text text-anchor="middle" x="247.018" y="-74.4" font-family="FreeSans" font-size="12.00">PrivateBase</text>
</a>
</g>
</g>
<!-- Node14&#45;&gt;Node9 -->
<g id="edge4" class="edge"><title>Node14&#45;&gt;Node9</title>
<path fill="none" stroke="#8b1a1a" d="M260.819,-59.8134C271.021,-47.1095 284.51,-30.3109 292.711,-20.0991"/>
<polygon fill="#8b1a1a" stroke="#8b1a1a" points="257.919,-57.8343 254.387,-67.823 263.377,-62.2173 257.919,-57.8343"/>
</g>
<!-- Node15 -->
<g id="node6" class="node"><title>Node15</title>
<polygon fill="none" stroke="#bfbfbf" points="402.905,-88 305.13,-88 305.13,-68 402.905,-68 402.905,-88"/>
<text text-anchor="middle" x="354.018" y="-74.4" font-family="FreeSans" font-size="12.00">Undocumented</text>
</g>
<!-- Node15&#45;&gt;Node9 -->
<g id="edge5" class="edge"><title>Node15&#45;&gt;Node9</title>
<path fill="none" stroke="midnightblue" d="M339.956,-59.8134C329.562,-47.1095 315.817,-30.3109 307.462,-20.0991"/>
<polygon fill="midnightblue" stroke="midnightblue" points="337.468,-62.2997 346.509,-67.823 342.886,-57.867 337.468,-62.2997"/>
</g>
<!-- Node16 -->
<g id="node7" class="node"><title>Node16</title>
<g id="a_node7"><a xlink:href="$classTempl.html" xlink:title="Templ&lt; int &gt;">
<polygon fill="none" stroke="black" points="501.886,-88 420.15,-88 420.15,-68 501.886,-68 501.886,-88"/>
<text text-anchor="middle" x="461.018" y="-74.4" font-family="FreeSans" font-size="12.00">Templ&lt; int &gt;</text>
</a>
</g>
</g>
<!-- Node16&#45;&gt;Node9 -->
<g id="edge6" class="edge"><title>Node16&#45;&gt;Node9</title>
<path fill="none" stroke="midnightblue" d="M429.712,-64.1665C398.048,-51.1865 349.916,-31.4554 322.058,-20.0351"/>
<polygon fill="midnightblue" stroke="midnightblue" points="428.388,-67.4067 438.969,-67.9614 431.044,-60.9298 428.388,-67.4067"/>
</g>
<!-- Node17 -->
<g id="node8" class="node"><title>Node17</title>
<g id="a_node8"><a xlink:href="$classTempl.html" xlink:title="Templ&lt; T &gt;">
<polygon fill="none" stroke="black" points="498.62,-156 423.415,-156 423.415,-136 498.62,-136 498.62,-156"/>
<text text-anchor="middle" x="461.018" y="-142.4" font-family="FreeSans" font-size="12.00">Templ&lt; T &gt;</text>
</a>
</g>
</g>
<!-- Node17&#45;&gt;Node16 -->
<g id="edge7" class="edge"><title>Node17&#45;&gt;Node16</title>
<path fill="none" stroke="orange" stroke-dasharray="5,2" d="M461.018,-125.576C461.018,-113.193 461.018,-97.7217 461.018,-88.0991"/>
<polygon fill="orange" stroke="orange" points="457.518,-125.823 461.018,-135.823 464.518,-125.823 457.518,-125.823"/>
<text text-anchor="middle" x="477.696" y="-108.4" font-family="FreeSans" font-size="12.00">&lt; int &gt;</text>
</g>
<!-- Node18 -->
<g id="node9" class="node"><title>Node18</title>
<g id="a_node9"><a xlink:href="$classUsed.html" xlink:title="Used">
<polygon fill="none" stroke="black" points="564.031,-88 520.004,-88 520.004,-68 564.031,-68 564.031,-88"/>
<text text-anchor="middle" x="542.018" y="-74.4" font-family="FreeSans" font-size="12.00">Used</text>
</a>
</g>
</g>
<!-- Node18&#45;&gt;Node9 -->
<g id="edge8" class="edge"><title>Node18&#45;&gt;Node9</title>
<path fill="none" stroke="#9a32cd" stroke-dasharray="5,2" d="M509.934,-67.7315C440.804,-48.4132 370.958,-29.7637 331.526,-19.3149"/>
<polygon fill="#9a32cd" stroke="#9a32cd" points="509.107,-71.1345 519.681,-70.461 510.995,-64.3939 509.107,-71.1345"/>
<text text-anchor="middle" x="478.366" y="-40.4" font-family="FreeSans" font-size="12.00">m_usedClass</text>
</g>
</g>
</svg>
