<?xml version="1.0" encoding="UTF-8" standalone="no"?>
<!DOCTYPE svg PUBLIC "-//W3C//DTD SVG 1.1//EN"
 "http://www.w3.org/Graphics/SVG/1.1/DTD/svg11.dtd">
<!-- Generated by graphviz version 2.38.0 (20140413.2041)
 -->
<!-- Title: Graphical Class Hierarchy Pages: 1 -->
<svg width="310pt" height="68pt"
 viewBox="0.00 0.00 309.98 68.00" xmlns="http://www.w3.org/2000/svg" xmlns:xlink="http://www.w3.org/1999/xlink">
<g id="graph0" class="graph" transform="scale(1 1) rotate(0) translate(4 64)">
<title>Graphical Class Hierarchy</title>
<polygon fill="white" stroke="none" points="-4,4 -4,-64 305.977,-64 305.977,4 -4,4"/>
<!-- Node1 -->
<g id="node1" class="node"><title>Node1</title>
<g id="a_node1"><a xlink:href="class_future_factory.html" target="_top" xlink:title="FutureFactory">
<polygon fill="white" stroke="black" points="0,-39.5 0,-59.5 90.6895,-59.5 90.6895,-39.5 0,-39.5"/>
<text text-anchor="middle" x="45.3447" y="-45.9" font-family="FreeSans" font-size="12.00">FutureFactory</text>
</a>
</g>
</g>
<!-- Node2 -->
<g id="node2" class="node"><title>Node2</title>
<g id="a_node2"><a xlink:href="classthread_1_1_future_synchronyzer.html" target="_top" xlink:title="thread::FutureSynchronyzer\l\&lt; ResultPolicy, FutureFactory,\l OutputResult \&gt;">
<polygon fill="white" stroke="black" points="126.689,-7.5 126.689,-51.5 301.977,-51.5 301.977,-7.5 126.689,-7.5"/>
<text text-anchor="start" x="134.689" y="-37.9" font-family="FreeSans" font-size="12.00">thread::FutureSynchronyzer</text>
<text text-anchor="start" x="134.689" y="-25.9" font-family="FreeSans" font-size="12.00">&lt; ResultPolicy, FutureFactory,</text>
<text text-anchor="middle" x="214.333" y="-13.9" font-family="FreeSans" font-size="12.00"> OutputResult &gt;</text>
</a>
</g>
</g>
<!-- Node1&#45;&gt;Node2 -->
<g id="edge1" class="edge"><title>Node1&#45;&gt;Node2</title>
<path fill="none" stroke="midnightblue" d="M101.181,-42.9323C109.342,-41.9549 117.918,-40.9278 126.541,-39.895"/>
<polygon fill="midnightblue" stroke="midnightblue" points="100.607,-39.4759 91.0945,-44.1404 101.44,-46.4263 100.607,-39.4759"/>
</g>
<!-- Node3 -->
<g id="node3" class="node"><title>Node3</title>
<g id="a_node3"><a xlink:href="class_result_policy.html" target="_top" xlink:title="ResultPolicy">
<polygon fill="white" stroke="black" points="4.33301,-0.5 4.33301,-20.5 86.3564,-20.5 86.3564,-0.5 4.33301,-0.5"/>
<text text-anchor="middle" x="45.3447" y="-6.9" font-family="FreeSans" font-size="12.00">ResultPolicy</text>
</a>
</g>
</g>
<!-- Node3&#45;&gt;Node2 -->
<g id="edge2" class="edge"><title>Node3&#45;&gt;Node2</title>
<path fill="none" stroke="midnightblue" d="M96.7039,-16.2299C106.13,-17.3024 116.229,-18.4515 126.396,-19.6083"/>
<polygon fill="midnightblue" stroke="midnightblue" points="97.0995,-12.7524 86.7679,-15.0994 96.3081,-19.7075 97.0995,-12.7524"/>
</g>
</g>
</svg>
